<svg xmlns="http://www.w3.org/2000/svg" width="133.902" height="191.743" viewBox="0 0 133.902 191.743"><g id="Group_214" data-name="Group 214" transform="translate(-1.708 -1.578)"><path id="Path_45" data-name="Path 45" d="M1.719,105.984a12.491,12.491,0,0,0,2.024,6.508c.135.205.71,1.1.856,1.318l8.343,12.8a11.885,11.885,0,0,0,7.551,5.178,12.1,12.1,0,0,0,2.493.26,11.946,11.946,0,0,0,6.526-1.945l.8-.513a12.488,12.488,0,0,0,5.407-7.892,12.616,12.616,0,0,0,.273-2.6,12.479,12.479,0,0,0-2.03-6.814l-9.2-14.118h0A11.913,11.913,0,0,0,17.2,92.982a11.773,11.773,0,0,0-2.479-.259,11.941,11.941,0,0,0-6.525,1.944l-.8.518a12.475,12.475,0,0,0-5.411,7.9,12.331,12.331,0,0,0-.274,2.587c0,.012,0,.023,0,.034,0,.035.008.067.008.1Z" fill="#eb7c6a"></path><path id="Path_46" data-name="Path 46" d="M133.606,11.649a11.943,11.943,0,0,0-7.612-5.106l-.939-.187a12.5,12.5,0,0,0-14.716,9.8L94.753,93.9a2.7,2.7,0,0,1-5.341-.53h0V13.55A11.975,11.975,0,0,0,77.435,1.578H76.48a12.5,12.5,0,0,0-12.5,12.508l0,79.28,0,0,0,.009a2.7,2.7,0,0,1-5.339.518L43.045,16.163A12.5,12.5,0,0,0,30.8,6.109a12.609,12.609,0,0,0-2.476.247l-.931.187a11.966,11.966,0,0,0-9.387,14.094L31.389,87.4l3.224,16.013,3.861,5.93a17.838,17.838,0,0,1,2.9,9.757,17.9,17.9,0,0,1-8.133,15.014l-.791.514a17.309,17.309,0,0,1-9.467,2.816h-.047a17.361,17.361,0,0,1-14.516-7.883l-6.7-10.285v28.3a45.747,45.747,0,0,0,45.748,45.747H73.894a45.757,45.757,0,0,0,45.748-45.747V137.562l-41.5-28.535a11.909,11.909,0,0,0-6.765-2.114,11.752,11.752,0,0,0-2.194.207,11.914,11.914,0,0,0-7.686,4.987l-.544.788a12.444,12.444,0,0,0-2.2,7.064,12.655,12.655,0,0,0,.213,2.3,12.468,12.468,0,0,0,5.21,8.026l20.045,13.787h0a2.7,2.7,0,0,1-3.057,4.443L61.115,134.728a17.877,17.877,0,0,1-4.607-24.884l.537-.792A17.36,17.36,0,0,1,81.2,104.579l38.443,26.438V99.425a2.7,2.7,0,0,1,.059-.566l15.677-78.214a12.24,12.24,0,0,0,.232-2.378A11.886,11.886,0,0,0,133.606,11.649Z" fill="#eb7c6a"></path></g></svg>