<svg xmlns="http://www.w3.org/2000/svg" width="122.318" height="192.625" viewBox="0 0 122.318 192.625"><g id="Group_215" data-name="Group 215" transform="translate(-1271 -1690.696)"><path id="Path_36" data-name="Path 36" d="M-270.253,128.33l.991,0a12.9,12.9,0,0,0,9.172-3.8,12.925,12.925,0,0,0,3.8-9.175l0-17.479a12.368,12.368,0,0,0-3.635-8.782,12.4,12.4,0,0,0-8.789-3.639h-.985a12.933,12.933,0,0,0-9.176,3.8,12.939,12.939,0,0,0-3.8,9.1v17.554a12.34,12.34,0,0,0,3.629,8.782A12.382,12.382,0,0,0-270.253,128.33Z" transform="translate(1553.667 1689.118)" fill="#eb7c6a"></path><path id="Path_37" data-name="Path 37" d="M-213.713,99.276a18.175,18.175,0,0,1,3.3-.307,17.974,17.974,0,0,1,10.187,3.175l7.9,5.431V78.561a12.378,12.378,0,0,0-3.641-8.785,12.376,12.376,0,0,0-8.784-3.637h-.985a12.938,12.938,0,0,0-9.18,3.8,12.956,12.956,0,0,0-3.8,9.174v21.879A18.041,18.041,0,0,1-213.713,99.276Z" transform="translate(1553.667 1689.118)" fill="#eb7c6a"></path><path id="Path_38" data-name="Path 38" d="M-160.355,14a12.338,12.338,0,0,0-3.635-8.783,12.366,12.366,0,0,0-8.784-3.641h-.987a12.923,12.923,0,0,0-9.176,3.8,12.944,12.944,0,0,0-3.8,9.175v96.87l26.382,18.144Z" transform="translate(1553.667 1689.118)" fill="#eb7c6a"></path><path id="Path_39" data-name="Path 39" d="M-246.894,124.529a12.93,12.93,0,0,0,9.175,3.8h.991a12.391,12.391,0,0,0,8.78-3.636c.013-.016.028-.031.043-.047a18.239,18.239,0,0,1-.9-3.15,18.734,18.734,0,0,1-.316-3.4,18.514,18.514,0,0,1,3.274-10.5l.563-.822c.3-.441.629-.865.969-1.279V90.663a12.36,12.36,0,0,0-3.636-8.769,12.369,12.369,0,0,0-8.782-3.639l-.994,0a12.917,12.917,0,0,0-9.172,3.794,12.936,12.936,0,0,0-3.8,9.177v24.127A12.916,12.916,0,0,0-246.894,124.529Z" transform="translate(1553.667 1689.118)" fill="#eb7c6a"></path><path id="Path_40" data-name="Path 40" d="M-203.4,106.755a12.418,12.418,0,0,0-7.016-2.192,12.872,12.872,0,0,0-2.281.213,12.386,12.386,0,0,0-7.971,5.172l-.563.823a12.94,12.94,0,0,0-2.291,7.329,13.149,13.149,0,0,0,.223,2.379,12.907,12.907,0,0,0,5.409,8.329l20.794,14.3,0,0a2.794,2.794,0,0,1,.716,3.889,2.791,2.791,0,0,1-2.3,1.212,2.782,2.782,0,0,1-1.582-.491l-20.793-14.3a18.6,18.6,0,0,1-4.036-3.775,17.963,17.963,0,0,1-11.623,4.279h-1a18.521,18.521,0,0,1-13.133-5.437,18.313,18.313,0,0,1-2.635-3.357,18.512,18.512,0,0,1-2.648,3.361,18.521,18.521,0,0,1-13.117,5.433h-1a17.963,17.963,0,0,1-12.414-4.983v17.807A47.3,47.3,0,0,0-268.774,180.3a47.305,47.305,0,0,0,33.557,13.9h27.406a47.317,47.317,0,0,0,33.565-13.9,47.329,47.329,0,0,0,13.9-33.558V136.358Z" transform="translate(1553.667 1689.118)" fill="#eb7c6a"></path></g></svg>