<svg xmlns="http://www.w3.org/2000/svg" width="137.63" height="192.439" viewBox="0 0 137.63 192.439"><g id="Group_213" data-name="Group 213" transform="translate(149 -0.882)"><path id="Path_41" data-name="Path 41" d="M-145.4,124.442a12.284,12.284,0,0,0,8.709,3.6h.978a12.8,12.8,0,0,0,9.09-3.764,12.806,12.806,0,0,0,3.762-9.091V97.869h0a12.231,12.231,0,0,0-3.6-8.7,12.265,12.265,0,0,0-8.7-3.606l-.978,0a12.8,12.8,0,0,0-9.093,3.762,12.8,12.8,0,0,0-3.762,9.093c0,.012-.005.023-.005.035v1.577l0,15.71A12.233,12.233,0,0,0-145.4,124.442Z" fill="#eb7c6a"></path><path id="Path_42" data-name="Path 42" d="M-77.4,104.5a12.584,12.584,0,0,0-2.26.21,12.276,12.276,0,0,0-7.9,5.133l-.553.805a12.8,12.8,0,0,0-2.268,7.268,12.466,12.466,0,0,0,.219,2.354,12.787,12.787,0,0,0,5.356,8.251l20.61,14.174a2.779,2.779,0,0,1,.712,3.858,2.77,2.77,0,0,1-2.283,1.2,2.772,2.772,0,0,1-1.574-.489l-20.6-14.171a18.426,18.426,0,0,1-4-3.74,17.83,17.83,0,0,1-11.521,4.236h-.993a18.343,18.343,0,0,1-13.012-5.385,18.15,18.15,0,0,1-2.616-3.328A18.329,18.329,0,0,1-122.7,128.2a18.325,18.325,0,0,1-12.983,5.386h-1.005A17.8,17.8,0,0,1-149,128.649V146.3a46.876,46.876,0,0,0,13.774,33.252,46.887,46.887,0,0,0,33.251,13.773H-74.82a46.882,46.882,0,0,0,33.257-13.773A46.872,46.872,0,0,0-27.793,146.3V136.005L-70.446,106.67A12.263,12.263,0,0,0-77.4,104.5Z" fill="#eb7c6a"></path><path id="Path_43" data-name="Path 43" d="M-117.309,115.191a12.79,12.79,0,0,0,3.764,9.09,12.8,12.8,0,0,0,9.091,3.766h.979a12.262,12.262,0,0,0,8.7-3.6c.018-.015.031-.033.047-.049a18.324,18.324,0,0,1-.884-3.119,18.688,18.688,0,0,1-.31-3.366,18.354,18.354,0,0,1,3.244-10.41l.555-.806c.3-.436.623-.857.962-1.267l0-14.693a12.262,12.262,0,0,0-3.6-8.7,12.254,12.254,0,0,0-8.7-3.608h-.976a12.807,12.807,0,0,0-9.094,3.763,12.815,12.815,0,0,0-3.766,9.094l0,19.843h0Z" fill="#eb7c6a"></path><path id="Path_44" data-name="Path 44" d="M-13.433,6.576A12.255,12.255,0,0,0-21.254,1.33l-.968-.194A12.789,12.789,0,0,0-24.765.883a12.772,12.772,0,0,0-7.108,2.155,12.805,12.805,0,0,0-5.477,8.176L-53.37,91.119v0c-.008.043-.03.08-.038.122s-.021.067-.032.1a2.6,2.6,0,0,1-.2.5l-.005.014a2.764,2.764,0,0,1-2.992,1.439,2.76,2.76,0,0,1-.888-.357h-.005a.058.058,0,0,1-.019-.015,2.832,2.832,0,0,1-.377-.283c-.022-.019-.046-.036-.067-.055a2.94,2.94,0,0,1-.29-.329c-.026-.034-.056-.065-.083-.1a2.852,2.852,0,0,1-.2-.358,1.442,1.442,0,0,1-.072-.134,2.542,2.542,0,0,1-.171-.539l0-.006-16.018-79.9a12.839,12.839,0,0,0-5.476-8.18A12.777,12.777,0,0,0-87.421.882a12.78,12.78,0,0,0-2.54.251l-.96.195a12.255,12.255,0,0,0-7.826,5.246,12.218,12.218,0,0,0-2.063,6.8,12.25,12.25,0,0,0,.241,2.437l13.718,68.429a17.829,17.829,0,0,1,1.227,6.491V100.96a17.881,17.881,0,0,1,4.958-1.7,18.011,18.011,0,0,1,3.268-.3A17.808,17.808,0,0,1-67.3,102.1l39.511,27.177V96.844a2.6,2.6,0,0,1,.057-.584l16.125-80.433a12.786,12.786,0,0,0,.241-2.449A12.252,12.252,0,0,0-13.433,6.576Z" fill="#eb7c6a"></path></g></svg>