<svg xmlns="http://www.w3.org/2000/svg" width="62" height="48" viewBox="0 0 62 48"><g id="Group_186" data-name="Group 186" transform="translate(-389 -9178)"><path id="Icon_awesome-torah" data-name="Icon awesome-torah" d="M3.5,0C1.015,0-1,1.343-1,3V45c0,1.657,2.015,3,4.5,3S8,46.657,8,45V3C8,1.343,5.985,0,3.5,0ZM12,43.5H48V4.5H12ZM56.5,0C54.015,0,52,1.343,52,3V45c0,1.657,2.015,3,4.5,3S61,46.657,61,45V3C61,1.343,58.985,0,56.5,0Z" transform="translate(390 9178)" fill="#fff"></path><g id="Group_185" data-name="Group 185" transform="translate(1)"><rect id="Rectangle_631" data-name="Rectangle 631" width="23" height="4" rx="2" transform="translate(408 9191)" fill="#eb7c6a"></rect><rect id="Rectangle_632" data-name="Rectangle 632" width="23" height="4" rx="2" transform="translate(408 9200)" fill="#eb7c6a"></rect><rect id="Rectangle_633" data-name="Rectangle 633" width="23" height="4" rx="2" transform="translate(408 9209)" fill="#eb7c6a"></rect></g></g></svg>