<svg xmlns="http://www.w3.org/2000/svg" width="41.249" height="60" viewBox="0 0 41.249 60"><path id="Icon_awesome-lightbulb" data-name="Icon awesome-lightbulb" d="M11.257,53.243a3.751,3.751,0,0,0,.628,2.073l2,3.01A3.749,3.749,0,0,0,17.009,60h7.231a3.749,3.749,0,0,0,3.122-1.673l2-3.011a3.749,3.749,0,0,0,.628-2.073l0-4.494H11.251l.006,4.494ZM0,20.625A20.51,20.51,0,0,0,5.1,34.192a33.676,33.676,0,0,1,6.118,10.717c0,.03.008.061.013.091H30.013c0-.03.008-.06.013-.091a33.676,33.676,0,0,1,6.118-10.717A20.62,20.62,0,1,0,0,20.625ZM20.625,11.25a9.386,9.386,0,0,0-9.375,9.375,1.875,1.875,0,0,1-3.75,0A13.139,13.139,0,0,1,20.625,7.5a1.875,1.875,0,1,1,0,3.75Z" fill="#fff"></path></svg>