<svg xmlns="http://www.w3.org/2000/svg" width="60" height="60.003" viewBox="0 0 60 60.003"><path id="Icon_awesome-tools" data-name="Icon awesome-tools" d="M58.722,46.369,45,32.647a8.7,8.7,0,0,0-10.007-1.629L22.5,18.526V11.249L7.5,0,0,7.5l11.249,15h7.277L31.02,34.99A8.72,8.72,0,0,0,32.649,45L46.371,58.719a4.357,4.357,0,0,0,6.175,0l6.175-6.175a4.378,4.378,0,0,0,0-6.175Zm-19.85-20A12.329,12.329,0,0,1,47.648,30l2.273,2.273a16.587,16.587,0,0,0,5.133-3.457A16.852,16.852,0,0,0,59.5,12.8a1.4,1.4,0,0,0-2.355-.644L48.422,20.87l-7.957-1.324-1.324-7.957,8.718-8.718A1.415,1.415,0,0,0,47.191.5,16.88,16.88,0,0,0,31.184,4.945a16.606,16.606,0,0,0-4.828,12.14l9.621,9.621A12.765,12.765,0,0,1,38.871,26.366ZM26.7,35.975,20.052,29.33,2.194,47.2a7.5,7.5,0,1,0,10.6,10.6L27.282,43.322a12.584,12.584,0,0,1-.586-7.347ZM7.5,55.309A2.812,2.812,0,1,1,10.314,52.5,2.821,2.821,0,0,1,7.5,55.309Z" transform="translate(0.004)" fill="#fff"></path></svg>