<svg xmlns="http://www.w3.org/2000/svg" width="61" height="46.667" viewBox="0 0 61 46.667"><path id="Icon_awesome-book-open" data-name="Icon awesome-book-open" d="M57.482,2.255c-5.708.324-17.054,1.5-24.059,5.791a1.6,1.6,0,0,0-.757,1.372v37.9a1.648,1.648,0,0,0,2.425,1.405C42.3,45.1,52.72,44.11,57.873,43.839A3.249,3.249,0,0,0,61,40.646V5.453a3.266,3.266,0,0,0-3.518-3.2ZM27.577,8.046c-7-4.288-18.349-5.466-24.058-5.791A3.267,3.267,0,0,0,0,5.453V40.647A3.247,3.247,0,0,0,3.127,43.84c5.155.271,15.583,1.261,22.789,4.891a1.644,1.644,0,0,0,2.418-1.4V9.4A1.568,1.568,0,0,0,27.577,8.046Z" transform="translate(0 -2.25)" fill="#fff"></path></svg>